<svg width="800" height="450" viewBox="0 0 800 450" fill="none" xmlns="http://www.w3.org/2000/svg">
  <rect width="800" height="450" fill="hsl(220, 20%, 8%)"/>
  
  <defs>
    <linearGradient id="grad3" x1="0%" y1="0%" x2="100%" y2="100%">
      <stop offset="0%" style="stop-color:hsl(180, 95%, 45%);stop-opacity:0.15" />
      <stop offset="50%" style="stop-color:hsl(80, 90%, 50%);stop-opacity:0.15" />
      <stop offset="100%" style="stop-color:hsl(180, 95%, 45%);stop-opacity:0.15" />
    </linearGradient>
  </defs>
  
  <rect width="800" height="450" fill="url(#grad3)"/>
  
  <!-- Pixel Grid -->
  <g transform="translate(300, 150)">
    <!-- Grid squares -->
    <rect x="0" y="0" width="30" height="30" fill="hsl(180, 95%, 45%)" opacity="0.6"/>
    <rect x="35" y="0" width="30" height="30" fill="hsl(80, 90%, 50%)" opacity="0.6"/>
    <rect x="70" y="0" width="30" height="30" fill="hsl(180, 95%, 45%)" opacity="0.4"/>
    <rect x="105" y="0" width="30" height="30" fill="hsl(180, 95%, 45%)" opacity="0.6"/>
    <rect x="140" y="0" width="30" height="30" fill="hsl(80, 90%, 50%)" opacity="0.4"/>
    <rect x="175" y="0" width="30" height="30" fill="hsl(180, 95%, 45%)" opacity="0.6"/>
    
    <rect x="0" y="35" width="30" height="30" fill="hsl(80, 90%, 50%)" opacity="0.6"/>
    <rect x="35" y="35" width="30" height="30" fill="hsl(180, 95%, 45%)" opacity="0.8"/>
    <rect x="70" y="35" width="30" height="30" fill="hsl(180, 95%, 45%)" opacity="0.8"/>
    <rect x="105" y="35" width="30" height="30" fill="hsl(180, 95%, 45%)" opacity="0.8"/>
    <rect x="140" y="35" width="30" height="30" fill="hsl(180, 95%, 45%)" opacity="0.8"/>
    <rect x="175" y="35" width="30" height="30" fill="hsl(80, 90%, 50%)" opacity="0.6"/>
    
    <rect x="0" y="70" width="30" height="30" fill="hsl(180, 95%, 45%)" opacity="0.6"/>
    <rect x="35" y="70" width="30" height="30" fill="hsl(80, 90%, 50%)" opacity="0.8"/>
    <rect x="70" y="70" width="30" height="30" fill="hsl(180, 95%, 45%)" opacity="0.4"/>
    <rect x="105" y="70" width="30" height="30" fill="hsl(180, 95%, 45%)" opacity="0.4"/>
    <rect x="140" y="70" width="30" height="30" fill="hsl(80, 90%, 50%)" opacity="0.8"/>
    <rect x="175" y="70" width="30" height="30" fill="hsl(180, 95%, 45%)" opacity="0.6"/>
    
    <rect x="0" y="105" width="30" height="30" fill="hsl(80, 90%, 50%)" opacity="0.4"/>
    <rect x="35" y="105" width="30" height="30" fill="hsl(180, 95%, 45%)" opacity="0.6"/>
    <rect x="70" y="105" width="30" height="30" fill="hsl(80, 90%, 50%)" opacity="0.6"/>
    <rect x="105" y="105" width="30" height="30" fill="hsl(80, 90%, 50%)" opacity="0.6"/>
    <rect x="140" y="105" width="30" height="30" fill="hsl(180, 95%, 45%)" opacity="0.6"/>
    <rect x="175" y="105" width="30" height="30" fill="hsl(80, 90%, 50%)" opacity="0.4"/>
  </g>
  
  <text x="400" y="320" font-family="Inter, sans-serif" font-size="24" font-weight="700" fill="hsl(180, 95%, 45%)" text-anchor="middle">
    Beadifier
  </text>
</svg>
